<svg width="36px" height="36px" version="1.1" xmlns="http://www.w3.org/2000/svg" xmlns:xlink="../../external.html?link=http://www.w3.org/1999/xlink"
	 viewBox="0 0 36 36" enable-background="new 0 0 36 36" xml:space="preserve">
<g>
	<polygon fill-rule="evenodd" clip-rule="evenodd" fill="#FFFFFF" points="27.4,13.8 25.3,13.8 25.3,15.6 23.2,15.6 23.2,17.7
		21.1,17.7 21.1,19.8 19.1,19.8 19.1,21.6 17.2,21.6 17.2,19.8 15.2,19.8 15.2,17.7 13.1,17.7 13.1,15.6 11,15.6 11,13.8 9.2,13.8
		9.2,11.7 7.1,11.7 7.1,13.8 7.1,15.6 7.1,17.7 7.1,19.8 7.1,21.6 7.1,23.7 9.2,23.7 11,23.7 13.1,23.7 15.2,23.7 17.2,23.7
		19.1,23.7 21.1,23.7 23.2,23.7 25.3,23.7 27.4,23.7 28.9,23.7 28.9,21.6 28.9,19.8 28.9,17.7 28.9,15.6 28.9,13.8 28.9,11.7
		27.4,11.7 	"/>
	<polygon fill-rule="evenodd" clip-rule="evenodd" fill="#FFFFFF" points="13.1,15.6 15.2,15.6 15.2,17.7 17.2,17.7 17.2,19.8
		19.1,19.8 19.1,17.7 21.1,17.7 21.1,15.6 23.2,15.6 23.2,13.8 25.3,13.8 25.3,11.7 23.2,11.7 21.1,11.7 19.1,11.7 17.2,11.7
		15.2,11.7 13.1,11.7 11,11.7 11,13.8 13.1,13.8 	"/>
	<path fill-rule="evenodd" clip-rule="evenodd" fill="#FFFFFF" d="M34,4V2h-2V0H4v2H2v2H0v28h2v2h2v2h28v-2h2v-2h2V4H34z M31,11.7
		v2.1v1.8v2.1v2.1v1.8v2.1v1.8h-2.1h-1.6h-2.1h-2.1h-2.1h-2.1h-1.8h-2.1h-2.1H11H9.2H7.1H5.3v-1.8v-2.1v-1.8v-2.1v-2.1v-1.8v-2.1
		V9.9h1.8h2.1H11h2.1h2.1h2.1h1.8h2.1h2.1h2.1h2.1h1.6H31V11.7z"/>
</g>
</svg>
