<svg width="36px" height="36px" viewBox="0 0 36 36" version="1.1" xmlns="http://www.w3.org/2000/svg" xmlns:xlink="../../external.html?link=http://www.w3.org/1999/xlink">
    <g stroke="none" stroke-width="1" fill="none" fill-rule="evenodd">
        <path d="M4,0 L4,2 L2,2 L2,4 L0,4 L0,32 L2,32 L2,34 L4,34 L4,36 L32.001,36 L32.001,34 L34.001,34 L34.001,32 L36,32 L36,4 L34.001,4 L34.001,2 L32.001,2 L32.001,0 L4,0 Z M17.001,16 L17.001,12 L19,12 L19,10 L23.001,10 L23.001,12 L25.001,12 L25.001,14 L29,14 L29,18 L25.001,18 L25.001,20 L23.001,20 L23.001,22 L21,22 L21,24 L19,24 L19,26 L15.5,26 L11.501,26 L7.001,26 L7.001,22 L11,22 L11,20 L9,20 L9,16 L9,14 L7.001,14 L7.001,10 L11,10 L11,12 L13,12 L13,14 L15.001,14 L15.001,16 L17.001,16 Z"  fill="#ffffff"></path>
    </g>
</svg>
